<svg id="SvgjsSvg1000" xmlns="http://www.w3.org/2000/svg" version="1.1" xmlns:xlink="http://www.w3.org/1999/xlink" xmlns:svgjs="http://svgjs.com/svgjs" width="265" height="116" viewBox="0 0 265 116"><title>Shape 1164</title><desc>Created with Avocode.</desc><defs id="SvgjsDefs1001"><clipPath id="SvgjsClipPath1010"><path id="SvgjsPath1009" d="M149.6 5351.9L154.79999999999998 5357.099069999999L159.99999999999997 5351.9L165.19999999999996 5357.099069999999L170.39999999999995 5351.9L176.00099999999995 5357.5L170.39999999999995 5363.1L165.19999999999996 5357.900930000001L159.99999999999997 5363.1L154.79999999999998 5357.900930000001L149.6 5363.1L143.999 5357.5Z " fill="#ffffff"></path></clipPath></defs><path id="SvgjsPath1007" d="M149.6 5351.9L154.79999999999998 5357.099069999999L159.99999999999997 5351.9L165.19999999999996 5357.099069999999L170.39999999999995 5351.9L176.00099999999995 5357.5L170.39999999999995 5363.1L165.19999999999996 5357.900930000001L159.99999999999997 5363.1L154.79999999999998 5357.900930000001L149.6 5363.1L143.999 5357.5Z " fill="#1f73e3" fill-opacity="0" transform="matrix(1,0,0,1,-27,-5351)"></path><path id="SvgjsPath1008" d="M149.6 5351.9L154.79999999999998 5357.099069999999L159.99999999999997 5351.9L165.19999999999996 5357.099069999999L170.39999999999995 5351.9L176.00099999999995 5357.5L170.39999999999995 5363.1L165.19999999999996 5357.900930000001L159.99999999999997 5363.1L154.79999999999998 5357.900930000001L149.6 5363.1L143.999 5357.5Z " fill-opacity="0" fill="#ffffff" stroke-dasharray="0" stroke-linejoin="round" stroke-linecap="round" stroke-opacity="1" stroke="#041532" stroke-miterlimit="50" stroke-width="2" clip-path="url(&quot;#SvgjsClipPath1010&quot;)" transform="matrix(1,0,0,1,-27,-5351)"></path><path id="SvgjsPath1011" d="M185 5465L185 5358.97589C184.68229 5359.299709999999 184.23951 5359.5 183.75 5359.5C182.784 5359.5 182 5358.72 182 5357.75C182 5356.78 182.784 5356 183.75 5356C184.716 5356 185.5 5356.78 185.5 5357.75C185.5 5357.83492 185.49399 5357.91839 185.48238 5358L292 5358L292 5465ZM182.5 5357.75C182.5 5358.44 183.06 5359 183.75 5359C184.44 5359 185 5358.44 185 5357.75C185 5357.06 184.44 5356.5 183.75 5356.5C183.06 5356.5 182.5 5357.06 182.5 5357.75Z " fill="#192233" fill-opacity="1" transform="matrix(1,0,0,1,-27,-5351)"></path><path id="SvgjsPath1012" d="M27 5467L27 5358L135.01762 5358C135.00601 5357.91839 135 5357.83492 135 5357.75C135 5356.78 135.784 5356 136.75 5356C137.716 5356 138.5 5356.78 138.5 5357.75C138.5 5358.72 137.716 5359.5 136.75 5359.5C136.48165 5359.5 136.22735 5359.43981 136 5359.33207L136 5467ZM135.5 5357.75C135.5 5358.44 136.06 5359 136.75 5359C137.44 5359 138 5358.44 138 5357.75C138 5357.06 137.44 5356.5 136.75 5356.5C136.06 5356.5 135.5 5357.06 135.5 5357.75Z " fill="#192233" fill-opacity="1" transform="matrix(1,0,0,1,-27,-5351)"></path></svg>