<svg id="SvgjsSvg1000" xmlns="http://www.w3.org/2000/svg" version="1.1" xmlns:xlink="http://www.w3.org/1999/xlink" xmlns:svgjs="http://svgjs.com/svgjs" width="138" height="5" viewBox="0 0 138 5"><title>-e-hover sep</title><desc>Created with Avocode.</desc><defs id="SvgjsDefs1001"></defs><path id="SvgjsPath1007" d="M179 309.5L179 307.5L233 308.445L233 308.554ZM95 308.554L95 308.445L149 307.5L149 309.5ZM175 306.5C176.105 306.5 177 307.395 177 308.5C177 309.605 176.105 310.5 175 310.5C173.895 310.5 173 309.605 173 308.5C173 307.395 173.895 306.5 175 306.5ZM153 306.5C154.105 306.5 155 307.395 155 308.5C155 309.605 154.105 310.5 153 310.5C151.895 310.5 151 309.605 151 308.5C151 307.395 151.895 306.5 153 306.5ZM158 307.5C158.552 307.5 159 307.948 159 308.5C159 309.052 158.552 309.5 158 309.5C157.448 309.5 157 309.052 157 308.5C157 307.948 157.448 307.5 158 307.5ZM162 307.5C162.552 307.5 163 307.948 163 308.5C163 309.052 162.552 309.5 162 309.5C161.448 309.5 161 309.052 161 308.5C161 307.948 161.448 307.5 162 307.5ZM166 307.5C166.552 307.5 167 307.948 167 308.5C167 309.052 166.552 309.5 166 309.5C165.448 309.5 165 309.052 165 308.5C165 307.948 165.448 307.5 166 307.5ZM170 307.5C170.552 307.5 171 307.948 171 308.5C171 309.052 170.552 309.5 170 309.5C169.448 309.5 169 309.052 169 308.5C169 307.948 169.448 307.5 170 307.5ZM152 308.5C152 309.052 152.448 309.5 153 309.5C153.552 309.5 154 309.052 154 308.5C154 307.948 153.552 307.5 153 307.5C152.448 307.5 152 307.948 152 308.5ZM174 308.5C174 309.052 174.448 309.5 175 309.5C175.552 309.5 176 309.052 176 308.5C176 307.948 175.552 307.5 175 307.5C174.448 307.5 174 307.948 174 308.5Z " fill="#266aca" fill-opacity="1" transform="matrix(1,0,0,1,-95,-306)"></path></svg>